<svg width="24" height="24" viewBox="0 0 24 24" fill="none" xmlns="http://www.w3.org/2000/svg">
    <g clip-path="url(#clip0_13_35)">
    <path fill-rule="evenodd" clip-rule="evenodd" d="M6 0C2.68629 0 0 2.68629 0 6V18C0 21.3137 2.68629 24 6 24H18C21.3137 24 24 21.3137 24 18V6C24 2.68629 21.3137 0 18 0H6ZM6 4H18C16.8954 4 16 4.89543 16 6C16 7.10457 16.8954 8 18 8C19.1046 8 20 7.10457 20 6V18C20 19.1046 19.1046 20 18 20H6C4.89543 20 4 19.1046 4 18V6C4 4.89543 4.89543 4 6 4ZM2 6C2 3.79086 3.79086 2 6 2H18C20.2091 2 22 3.79086 22 6V18C22 20.2091 20.2091 22 18 22H6C3.79086 22 2 20.2091 2 18V6ZM13.4233 7.81818H12.9858H11.1562C10.3939 7.81818 9.75095 7.95904 9.22727 8.24077C8.7036 8.51918 8.30753 8.90033 8.03906 9.38423C7.7706 9.86482 7.63636 10.41 7.63636 11.0199C7.63636 11.6364 7.7706 12.1866 8.03906 12.6705C8.30753 13.151 8.7036 13.5305 9.22727 13.8089C9.75095 14.084 10.3939 14.2216 11.1562 14.2216H11.7528V9.80682H12.9858V18H14.9744V7.81818H13.4233Z" fill="url(#paint0_linear_13_35)"/>
    </g>
    <defs>
    <linearGradient id="paint0_linear_13_35" x1="4" y1="5" x2="19.5" y2="19.5" gradientUnits="userSpaceOnUse">
    <stop stop-color="#029CBB"/>
    <stop offset="0.446086" stop-color="#589BFF"/>
    <stop offset="1" stop-color="#00AA6E"/>
    </linearGradient>
    <clipPath id="clip0_13_35">
    <rect width="24" height="24" rx="6" fill="white"/>
    </clipPath>
    </defs>
    </svg>
    