<svg width="24" height="24" viewBox="0 0 24 24" fill="none" xmlns="http://www.w3.org/2000/svg">
    <g clip-path="url(#clip0_6_7)">
        <rect x="1" y="1" width="22" height="22" rx="5" stroke="url(#paint0_linear_6_7)"
            stroke-width="2" />
        <path
            d="M17 4C17.1895 4 17.3749 4.01719 17.5547 4.05078C16.6646 4.25329 16 5.04857 16 6C16 7.10457 16.8954 8 18 8C18.9517 8 19.746 7.33481 19.9482 6.44434C19.982 6.62443 20 6.81012 20 7V17C20 18.6569 18.6569 20 17 20H7C5.34315 20 4 18.6569 4 17V7C4 5.34315 5.34315 4 7 4H17ZM11.1562 7.81836C10.3939 7.81836 9.75121 7.95949 9.22754 8.24121C8.70399 8.51955 8.30753 8.90005 8.03906 9.38379C7.77065 9.86428 7.63677 10.4098 7.63672 11.0195C7.63672 11.636 7.7706 12.187 8.03906 12.6709C8.30753 13.1513 8.70399 13.5303 9.22754 13.8086C9.68574 14.0493 10.2351 14.1848 10.876 14.2148L11.1562 14.2217H11.7529V9.80664H12.9854V18H14.9746V7.81836H11.1562Z"
            fill="url(#paint1_linear_6_7)" />
    </g>
    <defs>
        <linearGradient id="paint0_linear_6_7" x1="2" y1="2" x2="21" y2="23"
            gradientUnits="userSpaceOnUse">
            <stop stop-color="#F0860E" />
            <stop offset="0.603215" stop-color="#C92166" />
        </linearGradient>
        <linearGradient id="paint1_linear_6_7" x1="5.5" y1="5.5" x2="19.5" y2="20.5"
            gradientUnits="userSpaceOnUse">
            <stop stop-color="#DC9340" />
            <stop offset="1" stop-color="#790D39" />
        </linearGradient>
        <clipPath id="clip0_6_7">
            <rect width="24" height="24" rx="6" fill="white" />
        </clipPath>
    </defs>
</svg>
    